HIERARCHY
ROOT Hips
{
    OFFSET 0.000000 0.000000 0.000000
    CHANNELS 6 Xposition Yposition Zposition Zrotation Xrotation Yrotation
    JOINT Spine
    {
        OFFSET -0.000000 0.070388 0.000000
        CHANNELS 3 Zrotation Xrotation Yrotation
        JOINT Spine1
        {
            OFFSET -0.000000 0.188704 0.000000
            CHANNELS 3 Zrotation Xrotation Yrotation
            JOINT Neck
            {
                OFFSET -0.000000 0.205872 0.000000
                CHANNELS 3 Zrotation Xrotation Yrotation
                JOINT Head
                {
                    OFFSET -0.000000 0.093136 0.017168
                    CHANNELS 3 Zrotation Xrotation Yrotation
                    End Site
                    {
                        OFFSET -0.000000 0.171679 0.000000
                    }
                }
            }
            JOINT LeftShoulder
            {
                OFFSET 0.034319 0.171129 0.000640
                CHANNELS 3 Zrotation Xrotation Yrotation
                JOINT LeftArm
                {
                    OFFSET 0.104933 0.000000 0.000000
                    CHANNELS 3 Zrotation Xrotation Yrotation
                    JOINT LeftForeArm
                    {
                        OFFSET 0.282381 0.000000 0.000000
                        CHANNELS 3 Zrotation Xrotation Yrotation
                        JOINT LeftHand
                        {
                            OFFSET 0.191019 0.000000 0.000000
                            CHANNELS 3 Zrotation Xrotation Yrotation
                            End Site
                            {
                                OFFSET 0.000000 -0.128759 0.000000
                            }
                        }
                    }
                }
            }
            JOINT RightShoulder
            {
                OFFSET -0.034352 0.171129 0.000640
                CHANNELS 3 Zrotation Xrotation Yrotation
                JOINT RightArm
                {
                    OFFSET -0.104933 0.000000 0.000000
                    CHANNELS 3 Zrotation Xrotation Yrotation
                    JOINT RightForeArm
                    {
                        OFFSET -0.282381 0.000000 0.000000
                        CHANNELS 3 Zrotation Xrotation Yrotation
                        JOINT RightHand
                        {
                            OFFSET -0.191019 0.000000 0.000000
                            CHANNELS 3 Zrotation Xrotation Yrotation
                            End Site
                            {
                                OFFSET -0.000000 -0.128759 0.000000
                            }
                        }
                    }
                }
            }
        }
    }
    JOINT LeftUpLeg
    {
        OFFSET 0.085839 0.000000 0.000000
        CHANNELS 3 Zrotation Xrotation Yrotation
        JOINT LeftLeg
        {
            OFFSET -0.000000 -0.365643 0.000000
            CHANNELS 3 Zrotation Xrotation Yrotation
            JOINT LeftFoot
            {
                OFFSET -0.000000 -0.393614 0.000000
                CHANNELS 3 Zrotation Xrotation Yrotation
                JOINT LeftToeBase
                {
                    OFFSET -0.000000 -0.055796 0.128759
                    CHANNELS 3 Zrotation Xrotation Yrotation
                    End Site
                    {
                        OFFSET -0.000000 0.000000 0.034336
                    }
                }
            }
        }
    }
    JOINT RightUpLeg
    {
        OFFSET -0.085839 0.000000 0.000000
        CHANNELS 3 Zrotation Xrotation Yrotation
        JOINT RightLeg
        {
            OFFSET -0.000000 -0.365643 0.000000
            CHANNELS 3 Zrotation Xrotation Yrotation
            JOINT RightFoot
            {
                OFFSET -0.000000 -0.393614 0.000000
                CHANNELS 3 Zrotation Xrotation Yrotation
                JOINT RightToeBase
                {
                    OFFSET -0.000000 -0.055796 0.128759
                    CHANNELS 3 Zrotation Xrotation Yrotation
                    End Site
                    {
                        OFFSET -0.000000 0.000000 0.034336
                    }
                }
            }
        }
    }
}
MOTION
Frames:    14
Frame Time:    0.010000
0.103279    0.819632    -0.472199    -2.169451    2.374270    9.995803    -2.324975    4.540052    -1.158773    -1.273716    9.531221    -0.309700    5.051353    -9.059731    -1.606424    0.297616    5.427462    -1.448998    -3.685609    7.763144    0.248705    -21.505537    55.264290    -46.302563    3.956745    -11.277205    -17.648102    83.810875    -5.533695    10.374419    11.566455    10.018448    0.947747    44.038342    41.336712    22.447641    2.243531    9.030503    17.395021    -88.854431    -5.404890    8.745376    0.535975    3.051511    2.368970    -2.103704    2.317955    1.565796    3.651826    -9.682267    20.221268    0.000000    0.000000    0.000000    -2.017561    -19.627733    -3.884282    0.871151    3.850404    -0.810746    2.221956    7.076519    -21.786123    0.000000    0.000000    0.000000    
0.102447    0.818968    -0.468881    -2.058449    2.351330    10.250605    -2.508868    4.540184    -1.222901    -1.064395    9.628106    -0.349950    4.996061    -9.021890    -1.664245    0.293745    5.373847    -1.509093    -3.719712    7.782181    0.037820    -21.192163    55.058090    -46.636452    3.960551    -11.254984    -17.811779    83.864952    -5.576848    10.346174    11.577731    10.026290    0.743316    44.267895    41.443741    22.331757    2.356607    9.545349    17.002827    -88.918381    -4.965731    9.244606    0.546799    3.290470    2.295572    -2.104369    2.339706    1.457065    3.816509    -9.930439    20.186539    0.000000    0.000000    0.000000    -2.300672    -19.765778    -3.933719    0.744704    3.288640    -0.860310    2.372079    7.359881    -21.731533    0.000000    0.000000    0.000000    
0.101673    0.818273    -0.465256    -1.903999    2.283699    10.495352    -2.729748    4.535014    -1.271853    -0.851725    9.801292    -0.385694    4.965756    -9.022638    -1.724807    0.244495    5.329353    -1.564597    -3.757334    7.708840    -0.200680    -21.005783    54.894421    -46.825871    3.946319    -11.145872    -17.979309    83.931541    -5.622847    10.234036    11.586652    10.044446    0.540791    44.492043    41.536655    22.275251    2.508678    10.247911    16.738562    -89.280579    -3.296237    9.905131    0.516007    3.629460    2.250353    -2.081003    2.310250    1.333432    3.407542    -10.211958    20.184914    0.000000    0.000000    0.000000    -2.617505    -19.822653    -3.930538    0.669962    2.785654    -0.950741    2.483263    7.522180    -21.680784    0.000000    0.000000    0.000000    
0.100841    0.817573    -0.461516    -1.773990    2.274520    10.729061    -2.915760    4.448917    -1.322648    -0.672927    9.990820    -0.418570    4.919820    -9.051068    -1.764142    0.238497    5.281292    -1.607725    -3.779301    7.706089    -0.394553    -20.836662    54.618614    -47.031822    3.891022    -11.020217    -18.174231    83.989334    -5.728446    10.107361    11.602661    10.049294    0.340117    44.719841    41.587685    22.176317    2.652655    10.618746    16.491081    -89.480507    -2.572093    10.252257    0.512451    3.908354    2.196242    -2.074336    2.299778    1.222667    3.285866    -10.481527    20.170507    0.000000    0.000000    0.000000    -2.919265    -19.940378    -3.915203    0.615372    2.373236    -1.007945    2.539039    7.669441    -21.637671    0.000000    0.000000    0.000000    
0.099944    0.816865    -0.457556    -1.655893    2.221334    10.945054    -3.082986    4.409848    -1.367871    -0.508925    10.143917    -0.449019    4.879934    -9.039520    -1.799303    0.238689    5.206327    -1.645550    -3.791662    7.688744    -0.599545    -20.627001    54.500874    -47.271366    3.921941    -10.998741    -18.269003    84.035301    -5.762834    10.078198    11.636077    10.088995    0.180552    44.931862    41.628860    22.064577    2.703423    10.554888    16.240540    -89.417175    -2.601955    10.188590    0.522585    4.242335    2.185645    -2.037205    2.286614    1.120906    3.171933    -10.756960    20.125454    0.000000    0.000000    0.000000    -3.152011    -20.009562    -3.956177    0.541273    2.039434    -1.051444    2.602479    7.751921    -21.620029    0.000000    0.000000    0.000000    
0.099006    0.816132    -0.453476    -1.543127    2.216482    11.139503    -3.263806    4.311971    -1.404089    -0.314106    10.312763    -0.479352    4.818342    -9.073399    -1.840749    0.225191    5.157089    -1.690633    -3.829781    7.651814    -0.782914    -20.382162    54.437901    -47.534782    3.968803    -10.964252    -18.338074    83.916779    -5.768284    10.027521    11.611956    10.115617    0.014417    45.149651    41.662857    21.971607    2.764971    10.537127    16.039139    -89.306656    -2.613202    10.169611    0.537891    4.551880    2.171068    -2.013257    2.238998    1.065414    3.015951    -11.028090    20.077328    0.000000    0.000000    0.000000    -3.362153    -20.118706    -3.927144    0.463523    1.767722    -1.117874    2.701576    7.814692    -21.659359    0.000000    0.000000    0.000000    
0.098054    0.815402    -0.449217    -1.426265    2.192892    11.333913    -3.405771    4.233739    -1.480622    -0.170889    10.457599    -0.518567    4.735820    -9.079736    -1.860518    0.229341    5.107237    -1.716238    -3.884209    7.657358    -0.894634    -20.256699    54.244587    -47.669556    3.904100    -10.859256    -18.481102    84.118660    -5.757742    9.938418    11.602186    10.198175    -0.093832    45.349026    41.753925    21.924284    2.716978    10.427113    15.817243    -89.166428    -2.717435    10.075377    0.529106    4.930000    2.126869    -1.971897    2.218911    0.979802    2.902361    -11.366658    20.130297    0.000000    0.000000    0.000000    -3.624259    -20.196913    -3.862809    0.531711    1.585347    -1.205072    2.648942    7.863368    -21.755680    0.000000    0.000000    0.000000    
0.097029    0.814643    -0.444689    -1.340399    2.156625    11.514475    -3.516020    4.153094    -1.540226    -0.046714    10.591676    -0.550157    4.704083    -9.122582    -1.863588    0.196954    5.110257    -1.717267    -3.884811    7.656701    -1.008836    -20.024563    54.231178    -47.953556    3.938087    -10.843760    -18.493008    84.161911    -5.847609    9.914615    11.607585    10.226242    -0.212714    45.549236    41.884193    21.843126    2.722919    10.307197    15.610569    -89.105110    -2.830556    9.961787    0.593267    5.304678    2.035931    -1.960777    2.167374    0.955547    2.753169    -11.661950    20.150862    0.000000    0.000000    0.000000    -3.769601    -20.239769    -3.835045    0.495947    1.444814    -1.273737    2.662941    7.904627    -21.779142    0.000000    0.000000    0.000000    
0.096051    0.813874    -0.440054    -1.252937    2.153667    11.676867    -3.595970    4.040490    -1.623271    0.042529    10.705482    -0.585933    4.649065    -9.110754    -1.882997    0.170813    5.029467    -1.735045    -3.895749    7.638644    -1.085851    -19.997379    54.176796    -48.041618    3.947701    -10.849312    -18.555431    84.050766    -5.886751    9.908731    11.601324    10.285441    -0.288451    45.766968    41.936859    21.712809    2.718063    10.241015    15.530303    -89.061485    -2.860404    9.899414    0.612099    5.646550    1.986704    -1.876607    2.132822    0.895049    2.525903    -11.956103    20.165054    0.000000    0.000000    0.000000    -3.912173    -20.324322    -3.881283    0.480908    1.413982    -1.293539    2.616066    7.943564    -21.763575    0.000000    0.000000    0.000000    
0.094958    0.813107    -0.435200    -1.197457    2.131519    11.833755    -3.641854    3.956606    -1.717992    0.127416    10.783173    -0.625232    4.576612    -9.151251    -1.851325    0.166253    5.042903    -1.707024    -3.922311    7.619011    -1.112132    -19.929192    54.177162    -48.145527    3.945217    -10.873595    -18.620609    84.207153    -5.753279    9.946018    11.598104    10.335950    -0.361707    45.996319    42.012863    21.621773    2.679878    10.150586    15.355306    -88.974777    -2.948650    9.821070    0.691866    6.012519    1.932440    -1.823436    2.106232    0.860246    2.357029    -12.253680    20.176105    0.000000    0.000000    0.000000    -3.994477    -20.373669    -3.895988    0.465498    1.465527    -1.309513    2.600496    7.943816    -21.676670    0.000000    0.000000    0.000000    
0.093892    0.812294    -0.430268    -1.129151    2.164697    11.966597    -3.673965    3.811946    -1.811584    0.166563    10.856447    -0.659058    4.508297    -9.167868    -1.830013    0.141718    5.003471    -1.684859    -3.940632    7.621864    -1.148104    -19.806944    54.247952    -48.298702    3.991579    -10.903413    -18.590132    84.138115    -5.799222    9.963657    11.620266    10.432304    -0.424467    46.177238    42.020760    21.575390    2.647488    10.046641    15.192986    -88.856583    -3.073707    9.729391    0.778988    6.349056    1.851380    -1.835874    2.048454    0.886263    2.147105    -12.542805    20.195812    0.000000    0.000000    0.000000    -4.101847    -20.479784    -3.874120    0.523094    1.610653    -1.328964    2.429412    7.932772    -21.612015    0.000000    0.000000    0.000000    
0.092776    0.811447    -0.425084    -1.063913    2.163413    12.097146    -3.686392    3.697787    -1.935437    0.184115    10.912537    -0.701102    4.455131    -9.182913    -1.783804    0.093009    4.977431    -1.632104    -3.925735    7.631999    -1.115267    -19.839798    54.283859    -48.337585    4.005898    -10.879758    -18.625620    84.161865    -5.696559    9.942842    11.618093    10.443575    -0.454612    46.460812    42.053745    21.415121    2.617287    9.969321    15.074885    -88.836777    -3.147838    9.659945    0.843543    6.729906    1.810511    -1.766705    2.006108    0.881124    1.843591    -12.868716    20.205410    0.000000    0.000000    0.000000    -4.168696    -20.554914    -3.867675    0.544162    1.905671    -1.281185    2.332833    7.746839    -21.525812    0.000000    0.000000    0.000000    
0.091579    0.810515    -0.419660    -1.012382    2.136688    12.216612    -3.675308    3.614781    -2.037692    0.208527    10.940591    -0.736531    4.366302    -9.221082    -1.721818    0.087811    4.971174    -1.573247    -3.914461    7.643130    -1.109211    -19.938477    54.319141    -48.277733    3.972370    -10.949490    -18.710337    84.129822    -5.711739    10.012782    11.623175    10.486989    -0.537078    46.701115    42.060986    21.324045    2.576581    9.846777    14.930222    -88.735733    -3.341103    9.550771    0.959952    7.133907    1.804376    -1.727454    2.006687    0.836412    1.921438    -13.197296    20.204203    0.000000    0.000000    0.000000    -4.208070    -20.586569    -3.752936    0.614365    2.282935    -1.238161    2.101709    7.553444    -21.484587    0.000000    0.000000    0.000000    
0.090365    0.809583    -0.414117    -0.953338    2.150241    12.322531    -3.663669    3.485170    -2.154055    0.206754    10.966475    -0.773748    4.330681    -9.243416    -1.680365    -0.017993    4.955483    -1.514974    -3.894845    7.657396    -1.067265    -20.108898    54.371021    -48.185310    3.965780    -10.922212    -18.723181    84.065239    -5.710169    9.982919    11.634481    10.505197    -0.581782    46.946941    42.067665    21.197971    2.520393    9.766537    14.818317    -88.605049    -3.430427    9.485087    1.054448    7.487144    1.851350    -1.677733    2.038042    0.812580    1.627692    -13.568527    20.191301    0.000000    0.000000    0.000000    -4.273929    -20.651011    -3.614671    0.749976    2.765695    -1.171092    1.789500    7.345110    -21.451868    0.000000    0.000000    0.000000    
